<svg width="16" height="16" viewBox="0 0 16 16" fill="none" xmlns="http://www.w3.org/2000/svg">
<g id="edit-contained">
<path id="Icon" d="M7.39891 2.53596H3.60791C2.35169 2.53596 1.33331 3.5543 1.33331 4.81048V12.3923C1.33331 13.6485 2.35169 14.6668 3.60791 14.6668H11.1899C12.4461 14.6668 13.4645 13.6485 13.4645 12.3923L13.4645 8.60139M5.12431 10.8759L7.88288 10.3201C8.02933 10.2906 8.16379 10.2185 8.26939 10.1128L14.4447 3.93427C14.7408 3.63804 14.7406 3.15787 14.4443 2.86189L13.1361 1.55526C12.8399 1.2594 12.36 1.2596 12.064 1.55571L5.88805 7.73487C5.78265 7.84032 5.71068 7.97451 5.68115 8.12065L5.12431 10.8759Z" stroke="white" stroke-opacity="0.8" stroke-linecap="round" stroke-linejoin="round"/>
</g>
</svg>
